<?xml version="1.0" encoding="utf-8"?>
<!-- Generator: Adobe Illustrator 18.1.1, SVG Export Plug-In . SVG Version: 6.00 Build 0)  -->
<svg version="1.1" id="Layer_1" xmlns="http://www.w3.org/2000/svg" xmlns:xlink="http://www.w3.org/1999/xlink" x="0px" y="0px"
	 viewBox="0 0 29.2 47.8" enable-background="new 0 0 29.2 47.8" xml:space="preserve">
<linearGradient id="SVGID_1_" gradientUnits="userSpaceOnUse" x1="14.5126" y1="47.0324" x2="14.5126" y2="1.0002">
	<stop  offset="0" style="stop-color:#FC8900"/>
	<stop  offset="0.1824" style="stop-color:#FC8D07"/>
	<stop  offset="0.457" style="stop-color:#FD981C"/>
	<stop  offset="0.788" style="stop-color:#FEAA3E"/>
	<stop  offset="1" style="stop-color:#FFB757"/>
</linearGradient>
<path fill="url(#SVGID_1_)" stroke="#D26E28" stroke-width="0.8504" stroke-linecap="round" stroke-linejoin="round" stroke-miterlimit="10" d="
	M27.7,13.2c-0.1-1.3-0.3-2.4-0.8-3.6V9.5c-1.4-3.6-4.3-6.5-8-7.8C17.5,1.3,16.1,1,14.6,1c0,0,0,0,0,0c0,0,0,0,0,0
	c-1.5,0-3,0.3-4.4,0.8C6.4,3,3.4,5.9,2.1,9.5v0.1c-0.4,1.2-0.7,2.4-0.8,3.6c0,0.1,0,0.3,0,0.4c0,0.2,0,0.4,0,0.6
	c0,10.3,9.1,13.7,13.2,32.8c0-0.1,0-0.1,0-0.2c0,0.1,0,0.1,0,0.2c4.1-19.1,13.2-22.5,13.2-32.8c0-0.2,0-0.4,0-0.6
	C27.7,13.5,27.7,13.4,27.7,13.2z"/>
<circle fill="#A04A10" cx="14.5" cy="14.5" r="4.8"/>
</svg>
