<?xml version="1.0" encoding="utf-8"?>
<!-- Generator: Adobe Illustrator 19.1.0, SVG Export Plug-In . SVG Version: 6.00 Build 0)  -->
<svg version="1.1" id="Layer_1" xmlns="http://www.w3.org/2000/svg" xmlns:xlink="http://www.w3.org/1999/xlink" x="0px" y="0px"
	 viewBox="-233 358.9 128 124" style="enable-background:new -233 358.9 128 124;" xml:space="preserve">
<style type="text/css">
	.st0{fill:#FFFFFF;}
</style>
<g>
	<path class="st0" d="M-168.8,413.6c-7.7,0-14,6.3-14,14c0,7.7,6.3,14,14,14s14-6.3,14-14C-154.7,419.9-161,413.6-168.8,413.6z"/>
	<path class="st0" d="M-128.4,390.7h-8c-2.3-6.9-11-11.8-18.8-11.8h-26.1c-7.8,0-16.5,4.8-18.8,11.8h-9c-7.3,0-13.3,5.6-13.3,12.6
		v45.2c0,6.9,5.9,12.6,13.3,12.6h80.7c7.3,0,13.3-5.6,13.3-12.6v-45.2C-115.1,396.4-121.1,390.7-128.4,390.7z M-204.2,416.8
		c-3.9,0-7.1-3.2-7.1-7.1s3.2-7.1,7.1-7.1c3.9,0,7.1,3.2,7.1,7.1S-200.3,416.8-204.2,416.8z M-168.8,452.5
		c-13.7,0-24.9-11.2-24.9-24.9c0-13.7,11.2-24.9,24.9-24.9c13.7,0,24.9,11.2,24.9,24.9C-143.8,441.3-155,452.5-168.8,452.5z"/>
</g>
</svg>
