<?xml version="1.0" encoding="utf-8"?>
<!-- Generator: Adobe Illustrator 18.1.1, SVG Export Plug-In . SVG Version: 6.00 Build 0)  -->
<svg version="1.1" id="Layer_1" xmlns="http://www.w3.org/2000/svg" xmlns:xlink="http://www.w3.org/1999/xlink" x="0px" y="0px"
	 viewBox="0 0 128 124" enable-background="new 0 0 128 124" xml:space="preserve">
<path fill="#EEEEEE" d="M64.1,2.1c-33.1,0-60,26.9-60,60c0,33.1,26.9,60,60,60s60-26.9,60-60C124.1,29,97.2,2.1,64.1,2.1z
	 M69.6,116.6c-0.4-4.2-0.6-8-0.6-11.2c0-14.6,13.7-20.2,14.8-36.8c1-14.4-2.9-36.2-4.1-41c-0.2-0.7-0.8-1.1-1.4-1.1h-0.8
	c-0.8,0-1.5,0.7-1.5,1.5l-0.5,34.4c0,1.4-1,2.5-2.1,2.5c-1.2,0-2.1-1.1-2.1-2.5L70.6,28c0-0.8-0.7-1.5-1.5-1.5h-0.8
	c-0.8,0-1.5,0.7-1.5,1.5l-0.5,34.4c0,1.4-1,2.5-2.1,2.5c-1.2,0-2.1-1.1-2.1-2.5L61.5,28c0-0.8-0.7-1.5-1.5-1.5h-0.8
	c-0.8,0-1.5,0.7-1.5,1.5l-0.5,34.4c0,1.4-1,2.5-2.1,2.5c-1.2,0-2.1-1.1-2.1-2.5L52.4,28c0-0.8-0.7-1.5-1.5-1.5h-0.8
	c-0.7,0-1.3,0.5-1.4,1.1c-1.2,4.8-5.1,26.5-4.1,41c1.1,16.6,14.8,22.2,14.8,36.8c0,3.1-0.2,7-0.6,11.2C31.1,114,9.3,90.6,9.3,62.1
	c0-30.2,24.6-54.8,54.8-54.8s54.8,24.6,54.8,54.8C118.8,90.5,97.2,113.8,69.6,116.6z"/>
</svg>
