<?xml version="1.0" encoding="utf-8"?>
<!-- Generator: Adobe Illustrator 18.1.1, SVG Export Plug-In . SVG Version: 6.00 Build 0)  -->
<svg version="1.1" id="Layer_1" xmlns="http://www.w3.org/2000/svg" xmlns:xlink="http://www.w3.org/1999/xlink" x="0px" y="0px"
	 viewBox="0 0 841.9 275.5" enable-background="new 0 0 841.9 275.5" xml:space="preserve">
<g>
	<path fill="#F1A021" d="M566.4,223.2c-11.9,4.7-27.7,9.1-46.8,12.9c-19.3,3.8-43.4,5.7-72.4,5.7c-35.5,0-70-3-103.7-9.1
		c-33.8-6.1-66.9-12.5-99.5-19.5c-14.2-3.4-28.8-6.6-44-9.7c-12.9-2.5-26.9-4.9-41.9-7.2c-15-2.3-29.2-3.6-42.9-4.2
		c3.2-4,6.6-7.8,10.2-11.6c3.6-3.8,7.6-8,11.6-12.9c6.6-7.8,13.3-16.9,19.9-27.3s13.3-20.9,19.7-31.7c6.4-10.8,12.5-21.2,18-31.5
		c5.5-10.2,10.4-19.3,15-27.5c0.9-1.9,1.5-3.8,1.9-5.3s0.4-3,0.4-4.4c0-3.4-1.3-6.3-3.8-8.9c-2.5-2.5-5.3-4.6-8.3-6.3
		c-3-1.7-5.9-3-8.7-4s-4.6-1.5-5.1-1.9c-4.4,11.8-9.9,25.8-16.3,41.9c-6.4,16.1-13.7,32.4-21.2,48.7c-7.8,16.3-16.1,31.9-25,46.6
		c-9.3,14.6-18.8,26.5-28.4,35.8c-0.2,0-0.4,0-0.6,0h-0.9c-0.9,0-3.8,0.2-8.5,0.8s-10.4,1.5-17.1,3c-6.6,1.3-13.7,3.2-21,5.3
		c-7.4,2.1-14.4,4.7-20.9,7.8c-6.4,3-11.8,6.6-15.9,10.8c-4.2,4-6.1,8.5-6.1,13.7c0,2.3,1.1,4.4,3.6,6.3c2.3,1.9,8.2,3,17.3,3
		c3.8,0,8.3-0.6,13.5-1.5s11-2.7,17.3-5.3c6.3-2.5,13.1-6.1,20.3-10.8c7.2-4.6,15.2-10.6,23.7-17.8l0.4,2.1c0.6,0,1.5-0.2,2.8-0.4
		c0.9,0,2.1,0,3.2-0.2c1.3-0.2,3-0.2,5.1-0.2c4.2,0,9.7,0.2,16.5,0.8c7,0.6,15.5,1.9,25.8,3.8c10.2,1.9,22.4,4.6,36.2,8
		c13.8,3.4,30,7.8,48.4,13.5c24.3,8.2,46.3,14.6,65.8,19.3c19.5,4.7,41.7,9.1,66.4,13.1c24.6,4,49.5,5.9,74.3,5.9
		c3.8,0,11-0.2,21.8-0.6s22.9-1.7,36.4-3.6c13.7-1.9,27.5-4.9,41.9-8.9c14.4-4,26.9-9.5,37.7-16.9c3.4-1.9,6.6-4.6,9.5-7.6
		c2.5-2.3,4.7-5.1,6.6-8.5c1.9-3.4,2.8-7.6,2.8-11.9c0-3.4-0.6-6.6-1.9-10C591.4,211.6,580.4,217.9,566.4,223.2z M63.7,219
		c-5.1,3.4-10.8,6.3-16.5,8.9c-5.9,2.5-11.8,4.4-17.4,5.3c-5.9,0.9-11,0.6-15.4-1.1c0.9-4.7,4.7-8.5,11.4-11.4s13.7-5.1,21.2-6.6
		c8.9-1.9,18.8-3.4,29.8-4.2C73.2,212.6,68.8,215.6,63.7,219z M94.8,192.1l0.4-0.4C95.2,191.9,95,191.9,94.8,192.1z"/>
	<path fill="#F1A021" d="M834.3,150.2c-0.6-0.2-1.3-0.4-1.9-0.4l-0.9,0.4c-6.3,12.9-12.7,22.2-19.3,27.9c-6.6,5.7-12.1,8.5-16.5,8.5
		c-2.5,0-4.2-1.1-4.9-3.2c-0.8-2.1-1.1-4.7-1.1-7.8c0-7,1.9-14.4,5.7-22.2s8-15.5,12.3-22.9c4.4-7.4,8.5-14.4,12.3-20.9
		s5.7-11.8,5.7-15.9c0-2.5-1.1-4.9-3.2-7.4c-2.3-2.5-4.7-4.6-7.4-6.4s-5.1-3.6-7.4-4.7c-2.3-1.3-3.4-1.9-3.8-1.9
		c-0.6,2.3-1.5,4.7-2.8,7.6c-1.3,2.8-2.7,5.5-4.2,8c-1.5,3-3.4,6.1-5.7,8.9h-13.3c-2.3,0-4.6,0-7-0.2c-2.5-0.2-4.7-0.4-6.8-0.6
		c-2.1-0.2-3.8-0.6-5.1-0.8c-1.3-0.2-2.1-0.8-2.1-1.3c0.6-0.6,1.1-1.1,1.3-1.5c0.4-0.4,0.9-1.5,1.9-3.6c0-0.2-1.9-0.8-5.9-1.7
		c-4-0.8-8.5-1.9-14-3c-1.5-0.6-3-0.8-4.2-0.8c-1.3,0-2.3,0-2.8,0c-2.5,0-4.2,0.8-4.7,2.3c-0.6,1.5-0.9,3.8-0.9,7
		c0,3,0.9,6.8,2.8,11.2c1.9,4.4,5.5,8,10.8,11.2c-1.9,8.2-4.7,16.9-8.3,26.4c-3.6,9.1-6.3,14.2-11.9,22.2c-0.2,0.2-0.2,0.2-0.4,0.4
		c-1.3,1.5-2.8,3.2-5.7,5.7c-2.7,2.3-6.1,4.9-10.8,8.2c-4.2,2.5-9.7,5.5-16.9,8.9c-7,3.4-14.2,5.1-21,5.1c-9.1,0-16.5-3.2-22-9.5
		c-5.5-6.3-8.3-13.5-8.3-21.2c0-5.1,0.9-10,2.8-15.2c1.5,1.3,4.2,2.7,7.6,3.6s7.8,1.5,12.7,1.5c7.2,0,14.2-1.1,20.9-3.6
		c6.6-2.5,12.3-5.7,17.3-9.7c4.9-4,8.7-8.7,11.6-14c2.8-5.3,4.2-11,4.2-16.9c0-5.9-2.8-11.4-8.3-16.3c-5.5-5.1-13.3-7.6-23.5-7.6
		c-8.2,0-16.1,2.1-23.7,6.3c-7.6,4.2-14.4,9.9-20.3,16.9c-6.1,7-10.8,15-14.2,23.7c-3.4,8.9-5.1,18-5.1,27.5c0,3,0.4,6.4,1.1,10
		c-3,4.2-6.1,7.8-9.1,10.4c-6.6,5.7-12.1,8.5-16.5,8.5c-3.2,0-5.1-1.3-5.9-4c-0.8-2.7-1.1-5.5-1.1-8.5c0-5.3,0.9-10.6,3-15.7
		c2.1-5.1,4.6-10.2,7.6-15c3-4.7,6.1-9.5,8.9-14c3-4.6,5.5-9.1,7.4-13.7c0.9-2.5,1.3-4.6,1.3-5.9c0-2.5-1.1-4.9-3.2-7.4
		c-2.3-2.5-4.6-4.6-7-6.6c-2.5-2.1-4.9-3.8-7.4-5.1c-2.3-1.3-3.8-1.9-4-1.9c0.2,1.9-0.8,4.7-3.4,8c-2.5,3.2-6.8,9.1-12.9,16.1
		c-6.1,7.2-13.1,15.2-22.6,28.1c-9.5,12.9-22.4,30.3-33.4,53.5c-0.4,0-0.2-0.2-0.2,0c0.4-4.7,1.1-11.6,4-19.9l0,0
		c9.9-31.7,27.9-63.5,27.9-63.5c2.1-4.2,8.5-14,10.2-17.1c7.8-13.1,21-14.6,30.9-30.1c8.7-13.5,16.7-36.8,18.2-42.1
		c0.2-0.8-0.2-1.5-0.8-1.9l-0.8-0.4c-0.8-0.4-1.7-0.2-2.3,0.6l-19,33.2c-0.8,1.3-2.3,1.9-3.4,1.1c-1.1-0.6-1.5-2.3-0.8-3.6l18-33.8
		c0.4-0.8,0.2-1.9-0.6-2.3l-0.8-0.8c-0.8-0.4-1.7-0.2-2.3,0.6l-19,33.2c-0.8,1.3-2.3,1.9-3.4,1.1c-1.1-0.6-1.5-2.3-0.8-3.6l18-33.8
		c0.4-0.8,0.2-1.9-0.6-2.3l-0.8-0.4c-0.8-0.4-1.7-0.2-2.3,0.6l-19,33.2c-0.8,1.3-2.3,1.9-3.4,1.1c-1.1-0.6-1.5-2.3-0.8-3.6l18-33.8
		c0.4-0.8,0.2-1.9-0.6-2.3l-0.8-0.4c-0.6-0.4-1.5-0.2-1.9,0.4c-3.6,4-19,22.9-25.8,37.5c-8,16.7-3.8,27.9-11.6,42.1
		c-1.7,3-7.8,13.3-10.4,17.6c-6.6,11.2-23.7,39.6-32.4,66.6c-1.1,0.9-1.5,1.3-3.6,2.8c-2.3,1.7-4.9,3.6-8,5.7
		c-3.2,2.1-6.6,4-10.4,5.9s-7.8,3.4-11.8,4.7c-4.2,1.3-8.3,2.1-12.7,2.1c-8.5,0-15.5-2.8-21.2-8.3c-5.7-5.7-8.5-12.7-8.5-21.4
		c0-6.4,1.5-12.9,4.6-19.2c3-6.3,6.6-11.9,11.2-16.9c4.4-4.9,8.9-8.9,13.5-11.9c4.6-3,8.5-4.6,12.1-4.6c3.8,0,5.7,2.3,5.7,6.6
		c0,2.5-0.4,5.3-1.3,8.3c-0.6,2.8-1.9,6.1-3.8,9.7c-1.9,3.6-4.6,7.4-8,11.4c2.5,0.8,5.1,1.7,7.6,2.5c2.3,0.6,4.6,1.1,7,1.7
		c2.5,0.6,5.1,0.8,7.6,0.8c3.8,0,7-1.1,9.9-3.4c2.8-2.3,5.1-5.1,6.6-8.3c1.5-3.4,2.8-7,3.6-10.8c0.8-3.8,1.1-7.2,1.1-10.2
		c0-0.8-0.4-3.2-0.9-7s-2.1-7.8-4.2-11.8c-2.3-4-5.3-7.8-9.5-11c-4.2-3.2-9.7-4.7-16.5-4.7c-2.8,0-5.7,0.4-8.5,1.3
		c-19.5,5.9-33.9,15.9-42.9,29.8c-8.9,14-13.5,29.8-13.5,47c0,0.4,0,0.8,0,0.9c-3.2,4.6-6.4,8.2-9.7,11c-6.8,5.7-12.3,8.5-16.3,8.5
		c-2.8,0-4.7-1.1-5.5-3.2c-0.8-2.1-1.1-4.7-1.1-7.8c0-5.7,1.1-11.2,3.6-17.1c2.3-5.7,5.1-11.4,8.5-17.1c3.2-5.7,6.8-11,10.4-16.1
		c3.6-5.1,6.6-10.2,9.3-15c1.3-1.1,2.1-2.8,2.7-5.1c0.4-2.3,0.8-3.8,0.8-4.6c0-2.5-1.1-4.9-3.2-7.4c-2.3-2.5-4.6-4.6-7-6.6
		c-2.5-2.1-4.9-3.8-7.4-5.1c-2.3-1.3-3.8-1.9-4-1.9c-0.9,4-2.1,7-3.2,9.1c-1.3,2.1-3,4.6-5.5,7.2c-2.3,2.7-5.5,6.1-9.3,10
		c-3.8,4-8.5,9.7-14.2,16.9c-5.7,7.2-12.3,16.5-20.1,28.3c-7.8,11.6-16.9,26.4-27.3,44c-0.4-1.1-0.4-2.8-0.4-5.1
		c0-8.3,1.9-16.3,5.7-23.9s8-14.8,12.5-21.6c4.6-6.8,8.7-13.3,12.5-19.2s5.7-11.2,5.7-15.9c0-2.3-0.9-4.6-2.8-7.2
		c-1.9-2.5-4-4.7-6.4-7c-2.3-2.1-4.7-3.8-7.4-5.3c-2.5-1.3-4.2-2.1-5.1-2.1c-0.6,1.9-1.9,5.3-3.8,9.9s-3.8,8.5-5.7,11.9
		c-0.6,1.1-2.3,4.2-5.1,9.1c-2.8,4.9-5.9,11-8.9,18.2c-3.2,7.2-6.1,15.4-8.5,24.5c-2.5,8.7-3.6,17.4-3.8,26.4
		c-1.1,1.5-2.3,2.8-3.4,4.2c-7,7.8-12.7,11.6-17.1,11.6s-6.6-4.6-6.6-13.8c0-6.4,1.5-13.3,4.7-20.5c3.2-7.2,6.6-14,10.6-20.7
		s7.6-12.7,10.6-18c3.2-5.5,4.7-9.9,4.7-13.3c0-2.5-1.1-5.1-3.2-7.6c-2.3-2.5-4.7-4.7-7.6-7c-2.8-2.1-5.5-3.8-8-5.1
		c-2.5-1.3-4-1.9-4.2-1.9c-0.6,1.7-1.3,3.8-2.3,6.1c-0.9,2.5-2.1,4.7-3.2,7c-1.3,2.8-2.7,5.7-4.2,8.3c-2.3,4-5.3,10.2-9.3,19
		c-4,8.7-7,18-9.3,27.7c-5.3,11.2-11.2,19.2-17.3,23.7c-6.1,4.6-11.4,7-15.9,7c-3.8,0-6.3-1.1-7.4-3.4s-1.7-5.1-1.7-8.3
		c0-7,1.9-14.6,5.7-22.9c3.8-8.3,8-16.3,12.7-23.9c4.7-7.8,8.9-14.8,12.7-21.2s5.7-11.2,5.7-14.2c0-2.5-1.1-5.1-3.2-7.6
		c-2.3-2.5-4.6-4.7-7-7c-2.5-2.1-4.9-3.8-7.4-5.1c-2.3-1.3-3.8-1.9-4-1.9c-0.6,1.7-1.5,3.8-2.7,6.1c-1.1,2.5-2.5,4.7-4,7
		c-1.5,2.8-3.2,5.7-5.1,8.3h0.4c-1.5,3-3.8,7.4-6.6,12.9c-2.8,5.5-5.7,11.6-8.5,18.6c-2.8,6.8-5.3,14-7.4,21.6
		c-2.1,7.6-3,14.8-3,21.4c0,10,2.7,17.8,7.8,23.1c5.1,5.3,10.8,8,16.9,8c4.2,0,8-0.8,11.8-2.3c3.8-1.5,7.2-3.4,10.4-5.9
		s6.1-5.1,8.5-8c2.5-3,4.7-5.9,6.6-8.5c0,9.9,2.8,17.6,8.3,23.7c5.5,6.1,11.4,9.1,17.8,9.1c7,0,13.1-2.7,18.8-8.2
		c2.1-2.1,4-4.2,5.9-6.4c0.6,3.8,1.5,7,3,9.9c2.5,5.1,7.6,7.8,15.2,7.8c2.5,0,4.7-0.8,6.8-2.5c2.1-1.7,3.8-3.6,5.5-5.5
		c1.5-1.9,3.2-4.7,4.7-8.3c0.9-3,3-7.8,6.4-14c3.2-6.3,7-13.1,11.2-20.1c4.2-7.2,8.3-14.2,12.5-21c4.2-6.8,7.8-12.7,10.6-17.4
		c-3.2,7.6-5.7,14.4-7.6,20.5s-2.8,12.9-2.8,20.5c0,9.3,2.3,16.7,6.6,22.2c2.8,3.4,5.9,5.7,8.9,6.6c3.2,1.1,6.1,1.7,8.9,1.7
		c7,0,13.3-2.5,18.8-7.2c4.9-4.4,9.3-9.1,12.9-14.4c0.2,0.9,0.6,1.9,0.9,3c1.7,5.1,4.4,9.7,7.8,13.7c3.4,4,7.8,7.4,13.1,10
		c5.1,2.7,11.4,4,18.8,4c7,0,14.4-1.5,22.6-4.6c8-3,15.7-7,22.9-11.9c2.7-1.9,1.7-1.3,4.2-3.2c-0.8,3.2-0.8,4.9-1.1,8
		c-0.9,8.9,2.3,19.2,5.5,21.4c0.6,0.9,1.3,1.7,2.1,2.3c3.2,2.8,6.8,4.2,10.6,4.2c3.4,0,6.6-0.9,9.7-3c3-1.9,5.1-4.6,6.4-8
		c0.9-3,2.8-7.2,5.5-12.7c2.7-5.3,5.7-11,9.3-17.3c3.4-6.1,7-12.5,10.8-19c3.8-6.4,7.4-12.5,10.8-18c-1.5,4.7-2.8,9.1-3.6,12.9
		c-0.8,3.8-1.1,8.2-1.1,13.3c0,8.9,2.5,16.7,7.6,23.3s11.2,9.9,18.4,9.9c6.6,0,12.7-2.3,18.2-7c5.5-4.6,10-9.7,14-15.5
		c1.3,3.4,3.2,6.8,5.7,10c3.4,4.6,8,8.5,13.7,11.6c5.7,3,12.7,4.6,20.9,4.6c11,0,20.7-2.1,29.2-6.3c8-4,14.6-8.3,19.7-13.1
		c7-5.7,15-15.2,16.7-17.8c0.6-0.9,2.1-2.8,4-6.1c1.7-3,4.6-7.4,7.6-13.7c3.2-6.3,7.8-15,13.7-25.8c1.3,0.2,2.5,0.4,3.8,0.4
		s2.7,0,4.2,0c3.4,0,6.8-0.2,9.9-0.4c3.2-0.2,6.4-0.8,9.9-1.3c-3.4,7.6-6.6,15.7-9.3,24.5c-2.7,8.7-4,17.1-4,25.2
		c0,10,2.7,17.6,7.8,22.9c5.1,5.1,10.8,7.8,16.9,7.8c7,0,13.3-2.5,18.8-7.2c5.5-4.7,10.2-10,14.2-15.7c4-5.7,7-11.2,8.9-16.1
		c2.1-5.1,3-7.8,3-8.3C836.8,151.5,836,151,834.3,150.2z M652.1,121.6c4.4-5.1,8.7-8.5,13.1-10.8c4.2-2.1,8-3.2,11.2-3.2
		c4.4,0,6.6,1.9,6.6,5.5c0,2.3-0.9,4.9-3,8.2s-4.7,6.3-8,9.1c-3.2,2.8-7.2,5.1-11.6,7.2c-4.4,1.9-8.9,2.8-13.7,2.8
		c-3.2,0-5.1-0.2-6.1-0.4C643.6,133.3,647.5,127.3,652.1,121.6z"/>
</g>
</svg>
