<?xml version="1.0" encoding="utf-8"?>
<!-- Generator: Adobe Illustrator 18.1.1, SVG Export Plug-In . SVG Version: 6.00 Build 0)  -->
<svg version="1.1" id="Layer_1" xmlns="http://www.w3.org/2000/svg" xmlns:xlink="http://www.w3.org/1999/xlink" x="0px" y="0px"
	 viewBox="0 0 841.9 595.3" enable-background="new 0 0 841.9 595.3" xml:space="preserve">
<g>
	<path d="M597.1,354.1c1.2,3.6,1.8,6.5,1.8,10.1c0,4.2-1.2,8.3-3,11.9c-1.8,3.6-4.2,5.9-6.5,8.3c-3,3-5.9,5.3-9.5,7.1
		c-10.7,7.1-22.6,12.5-36.8,16.6c-14.3,3.6-27.9,6.5-41,8.9c-13.1,1.8-25,3-35.6,3.6c-10.7,0.6-17.8,0.6-21.4,0.6
		c-24.4,0-48.7-1.8-73.1-5.9c-24.4-3.6-45.7-8.3-64.8-12.5c-19-4.8-40.4-10.7-64.2-19c-17.8-5.3-33.9-10.1-47.5-13.1
		c-13.7-3.6-25.5-5.9-35.6-7.7c-10.1-1.8-18.4-3-25.5-3.6c-6.5-0.6-12.5-0.6-16-0.6c-2.4,0-4.2,0-5.3,0s-2.4,0-3,0
		c-1.2,0-2.4,0.6-3,0.6l-0.6-1.8c-8.3,7.1-16,13.1-23.2,17.2c-7.1,4.8-13.7,8.3-20.2,10.7c-5.9,2.4-11.9,4.2-16.6,5.3
		c-5.3,1.2-9.5,1.2-13.1,1.2c-8.9,0-14.9-1.2-16.6-3c-2.4-1.8-3.6-4.2-3.6-5.9c0-4.8,1.8-9.5,5.9-13.7s8.9-7.7,15.4-10.7
		s13.1-5.3,20.2-7.7c7.1-1.8,14.3-3.6,20.8-5.3c6.5-1.2,11.9-2.4,16.6-3c4.8-0.6,7.1-0.6,8.3-0.6h1.2c0.6,0,1.2,0,1.2-0.6l-0.6,0.6
		c9.5-8.9,19-20.8,27.3-35.1c8.9-14.3,17.2-29.7,24.4-45.7c7.7-16,14.3-32.1,20.8-47.5c6.5-16,11.9-29.7,16-41
		c0.6,0,2.4,1.2,5.3,1.8c3,1.2,5.3,2.4,8.3,4.2c3,1.8,5.3,3.6,8.3,5.9c2.4,2.4,3.6,5.3,3.6,8.9c0,1.2,0,3-0.6,4.2
		c-0.6,1.8-1.2,3-1.8,5.3c-4.2,7.7-8.9,17.2-14.9,26.7c-5.3,10.1-11.3,20.2-17.8,30.9c-6.5,10.7-12.5,20.8-19,30.9
		c-6.5,10.1-13.1,19-19.6,26.7c-4.2,4.8-7.7,8.9-11.3,12.5s-7.1,7.7-10.1,11.3c13.1,0.6,27.3,1.8,42.2,4.2s28.5,4.8,41,7.1
		c14.9,3,29.1,5.9,43.4,9.5c32.1,7.1,64.2,13.1,97.4,19c33.3,5.9,67.1,8.9,101.6,8.9c28.5,0,52.3-1.8,70.7-5.3
		c19-3.6,33.9-7.7,45.7-12.5C578.1,367.2,588.8,361.2,597.1,354.1z M23.8,380.8c4.2,1.8,9.5,1.8,14.9,1.2c5.9-1.2,11.3-3,17.2-5.3
		s11.3-5.3,16-8.9c5.3-3.6,9.5-6.5,12.5-8.9c-10.7,0.6-20.8,2.4-29.1,4.2c-7.1,1.8-14.3,3.6-20.8,6.5
		C28.5,372.5,25,376.1,23.8,380.8z"/>
	<path d="M307.8,300c1.8,0.6,2.4,1.2,2.4,1.8c0,1.2-1.2,4.8-3,10.1c-1.8,5.9-4.8,11.9-8.3,18.4c-3.6,6.5-8.3,12.5-13.7,17.8
		c-5.3,5.3-11.3,8.3-18.4,8.3c-5.9,0-11.9-3-17.2-8.9c-5.3-5.9-8.3-13.7-8.3-23.2c-1.8,3-4.2,5.3-6.5,8.3c-2.4,3-5.3,5.3-8.3,7.7
		c-3,2.4-6.5,4.2-10.1,5.9c-3.6,1.8-7.7,2.4-11.9,2.4c-5.9,0-11.3-2.4-16.6-7.7s-7.7-12.5-7.7-22.6c0-6.5,1.2-13.7,3-20.8
		c1.8-7.1,4.2-14.3,7.1-21.4c3-6.5,5.3-12.5,8.3-17.8c3-5.3,4.8-9.5,6.5-12.5h-0.6c1.8-3,3.6-5.3,5.3-8.3c1.8-2.4,3-4.2,4.2-6.5
		s1.8-4.2,2.4-5.9c0.6,0,1.8,0.6,4.2,1.8c2.4,1.2,4.8,3,7.1,4.8c2.4,1.8,4.8,4.2,7.1,6.5s3,4.8,3,7.1c0,3-1.8,7.7-5.3,14.3
		c-3.6,6.5-7.7,13.1-12.5,20.8s-8.9,15.4-12.5,23.2c-3.6,8.3-5.3,15.4-5.3,22.6c0,3.6,0.6,5.9,1.8,8.3s3.6,3.6,7.1,3.6
		c4.2,0,9.5-2.4,15.4-6.5c5.9-4.8,11.9-12.5,16.6-23.2c2.4-9.5,5.3-18.4,8.9-27.3c4.2-8.3,7.1-14.9,8.9-18.4c1.8-3,3-5.3,4.2-8.3
		c1.2-2.4,2.4-4.2,3-6.5c1.2-2.4,1.8-4.2,2.4-5.9c0.6,0,1.8,0.6,4.2,1.8c2.4,1.2,5.3,3,7.7,4.8c3,1.8,5.3,4.2,7.1,6.5
		c2.4,2.4,3,4.8,3,7.1c0,3.6-1.8,7.7-4.8,13.1s-6.5,11.3-10.7,17.8c-4.2,6.5-7.1,13.1-10.7,20.2c-3,7.1-4.8,13.7-4.8,20.2
		c0,8.9,2.4,13.7,6.5,13.7c4.2,0,10.1-3.6,16.6-11.3s13.1-19,18.4-34.5c0,0,0.6-0.6,1.2-0.6C306.6,300,307.2,300,307.8,300z"/>
	<path d="M360.6,333.9c-4.2-5.3-6.5-12.5-6.5-22c0-7.1,1.2-14.3,3-20.2s4.2-12.5,7.1-20.2c-3,4.8-6.5,10.1-10.7,17.2
		c-4.2,6.5-8.3,13.7-12.5,20.8s-7.7,13.7-10.7,19.6c-3,5.9-5.3,10.7-6.5,13.7c-1.8,3.6-3,6.5-4.8,8.3c-1.8,1.8-3.6,3.6-5.3,5.3
		c-1.8,1.8-4.2,2.4-6.5,2.4c-7.1,0-12.5-2.4-14.9-7.7c-2.4-5.3-3.6-11.9-3.6-20.2c0-8.9,1.2-17.8,3.6-26.7
		c2.4-8.9,5.3-16.6,8.3-23.8c3-7.1,5.9-13.1,8.9-17.8c3-4.8,4.8-7.7,5.3-8.9c1.8-3.6,3.6-7.1,5.3-11.9c1.8-4.8,3-7.7,3.6-9.5
		c1.2,0,2.4,0.6,5.3,1.8c2.4,1.2,4.8,3,7.1,5.3c2.4,1.8,4.2,4.2,6.5,6.5c1.8,2.4,3,4.8,3,7.1c0,4.8-1.8,10.1-5.3,15.4
		c-3.6,5.9-7.7,11.9-12.5,19c-4.8,6.5-8.3,13.7-12.5,21.4c-3.6,7.1-5.3,15.4-5.3,23.2c0,2.4,0,3.6,0.6,4.8
		c10.1-17.2,19-31.5,26.7-42.8c7.7-11.3,14.3-20.8,19.6-27.3c5.3-7.1,10.1-12.5,13.7-16.6c3.6-4.2,6.5-7.1,8.9-10.1
		c2.4-2.4,4.2-4.8,5.3-7.1c1.2-1.8,2.4-4.8,3-8.9c0.6,0,1.8,0.6,4.2,1.8c2.4,1.2,4.8,3,7.1,4.8c2.4,1.8,4.8,4.2,7.1,6.5
		c2.4,2.4,3,4.8,3,7.1c0,0.6,0,2.4-0.6,4.8s-1.2,3.6-2.4,4.8c-2.4,4.8-5.3,9.5-8.9,14.9c-3.6,5.3-7.1,10.1-10.1,16
		c-3,5.3-5.9,11.3-8.3,16.6c-2.4,5.3-3.6,11.3-3.6,16.6c0,3,0.6,5.3,1.2,7.7c0.6,1.8,2.4,3,5.3,3c4.2,0,9.5-3,16-8.3
		c6.5-5.3,13.1-14.9,19-27.3l1.2-0.6c1.2,0,1.8,0.6,3,1.2l1.2,0.6c0,0.6-1.2,3-3,8.3c-1.8,4.8-4.8,10.1-8.3,16
		c-3.6,5.9-8.3,10.7-13.7,15.4s-11.3,7.1-18.4,7.1c-3,0-5.9-0.6-8.9-1.8C366.6,339.2,363.6,336.9,360.6,333.9z"/>
	<path d="M521.1,298.8c1.2,0,1.2,0.6,1.2,1.8c-1.8,5.9-4.8,11.9-10.1,17.8c-5.3,5.9-11.3,11.3-18.4,16c-7.1,4.8-14.9,8.9-22.6,11.9
		s-15.4,4.8-22,4.8c-7.1,0-13.1-1.2-18.4-4.2c-5.3-2.4-9.5-5.9-12.5-10.1c-3.6-4.2-5.9-8.3-7.7-13.7c-1.8-4.8-2.4-9.5-2.4-14.3
		c0-17.2,4.2-32.1,13.1-46.3c8.9-13.7,22.6-23.2,42.2-29.1c3-0.6,5.3-1.2,8.3-1.2c6.5,0,12.5,1.8,16,4.8c4.2,3,7.1,6.5,9.5,10.7
		c2.4,4.2,3.6,7.7,4.2,11.3c0.6,3.6,1.2,5.9,1.2,6.5c0,3-0.6,6.5-1.2,10.1c-0.6,3.6-1.8,7.1-3.6,10.7c-1.8,3.6-3.6,5.9-6.5,8.3
		c-3,2.4-5.9,3.6-9.5,3.6c-2.4,0-4.8,0-7.1-0.6c-2.4-0.6-4.8-1.2-7.1-1.8c-2.4-0.6-4.8-1.8-7.1-2.4c3.6-3.6,5.9-7.7,7.7-11.3
		c1.8-3.6,3-6.5,3.6-9.5c1.2-3,1.2-5.9,1.2-8.3c0-4.2-1.8-6.5-5.3-6.5c-3.6,0-7.1,1.8-11.9,4.8c-4.8,3-8.9,7.1-13.1,11.9
		c-4.2,4.8-7.7,10.1-10.7,16.6c-3,5.9-4.2,12.5-4.2,19c0,8.3,3,15.4,8.3,20.8c5.3,5.3,12.5,8.3,20.8,8.3c4.2,0,8.3-0.6,12.5-1.8
		c4.2-1.2,7.7-3,11.9-4.8c3.6-1.8,7.1-3.6,10.1-5.9c3-1.8,5.9-4.2,7.7-5.3c5.9-4.2,10.1-7.7,12.5-10.1c2.4-3,4.2-4.8,5.3-6.5
		s1.8-3,2.4-4.2C518.1,298.8,518.7,298.8,521.1,298.8z"/>
	<path d="M628.6,300c1.8,0.6,2.4,1.2,2.4,1.8c0,0.6-1.2,3.6-3,8.9c-2.4,4.8-5.3,10.1-8.9,16c-4.2,5.9-8.3,10.7-13.7,15.4
		c-5.3,4.8-11.3,6.5-17.8,6.5c-7.1,0-13.1-3-17.8-9.5c-4.8-6.5-7.1-14.3-7.1-22.6c0-4.8,0.6-9.5,1.2-13.1c0.6-3.6,1.8-7.7,3.6-12.5
		c-3.6,5.3-7.1,11.3-10.7,17.8c-3.6,6.5-7.1,12.5-10.7,18.4c-3.6,5.9-6.5,11.9-8.9,16.6c-2.4,5.3-4.2,9.5-5.3,12.5
		c-1.2,3.6-3.6,5.9-6.5,7.7c-3,1.8-5.9,3-9.5,3s-7.1-1.2-10.7-4.2c-3-3-4.8-7.7-4.8-14.9c0-6.5,1.2-14.9,3.6-24.4s5.3-20.2,8.9-30.9
		c3.6-10.7,7.1-22,11.9-32.7c4.2-10.7,8.3-20.8,11.9-30.3c4.2-8.9,7.1-17.2,10.7-23.8c3-6.5,5.3-10.7,5.9-13.1c1.2-3,1.8-5.9,3-8.9
		c1.2-2.4,1.8-4.8,2.4-7.1c-0.6-3.6,0-5.3,0-7.1c0.6,0,1.8,1.2,4.8,1.8c3,1.2,5.9,2.4,8.9,4.2s5.9,3.6,8.3,5.9
		c2.4,2.4,3.6,4.8,3.6,8.3c0,3.6-0.6,7.1-2.4,10.7c-1.8,3-4.2,7.7-7.7,14.3c-3.6,7.1-7.7,14.9-12.5,23.8
		c-4.8,8.9-9.5,18.4-14.9,28.5s-9.5,20.2-13.7,30.3c-4.2,9.5-7.7,19-10.7,26.7c-3,8.3-4.2,14.9-4.2,19.6c0,0,0-0.6,0.6-0.6
		c13.1-20.8,24.4-37.4,33.3-49.9c9.5-12.5,16.6-22.6,22.6-29.7c5.9-7.1,10.1-12.5,12.5-15.4c2.4-3,3-5.9,2.4-7.7
		c0.6,0,1.8,0.6,4.2,1.8c2.4,1.2,4.8,3,7.1,4.8s4.8,4.2,7.1,6.5c2.4,2.4,3,4.8,3,7.1c0,1.2-0.6,3.6-1.2,5.9
		c-1.8,4.2-4.2,8.9-7.1,13.7c-3,4.8-5.9,8.9-8.9,13.7c-3,4.8-5.3,9.5-7.1,14.9c-1.8,5.3-3,10.1-3,15.4c0,3,0.6,5.9,1.2,8.3
		c0.6,2.4,3,4.2,5.9,4.2c4.2,0,9.5-3,16-8.3c6.5-5.3,13.1-14.9,19-27.3c0,0,0.6-0.6,1.2-0.6C627.4,300,628,300,628.6,300z"/>
	<path d="M721.3,310.7c0.6,0.6,1.2,1.2,1.2,1.8c-4.8,7.7-10.1,14.3-16,20.2c-5.3,4.8-11.9,9.5-20.2,13.7c-8.3,4.2-17.8,5.9-28.5,5.9
		c-8.3,0-14.9-1.8-20.2-4.8s-10.1-6.5-13.7-11.3c-3.6-4.8-5.9-9.5-7.1-14.9c-1.2-5.3-2.4-10.1-2.4-14.3c0-9.5,1.8-18.4,5.3-26.7
		c3.6-8.9,8.3-16.6,13.7-23.2c5.9-7.1,12.5-12.5,20.2-16.6c7.1-4.2,14.9-5.9,23.2-5.9c10.1,0,17.8,2.4,23.2,7.1s8.3,10.1,8.3,16
		c0,5.9-1.2,11.3-4.2,16.6c-3,5.3-6.5,10.1-11.3,13.7c-4.8,4.2-10.7,7.1-16.6,9.5c-6.5,2.4-13.1,3.6-20.2,3.6
		c-4.8,0-8.9-0.6-12.5-1.2c-3.6-1.2-5.9-2.4-7.1-3.6c-1.8,4.8-3,10.1-3,14.9c0,7.7,3,14.9,8.3,20.8c5.3,5.9,12.5,9.5,21.4,9.5
		c6.5,0,13.7-1.8,20.8-4.8c7.1-3.6,12.5-5.9,16.6-8.9c4.8-3,8.3-5.3,10.7-7.7c2.4-2.4,4.8-4.2,5.9-5.3c1.2-1.8,2.4-2.4,2.4-3.6
		c0.6-0.6,1.2-1.2,1.8-1.2C720.1,310.1,720.7,310.1,721.3,310.7z M648.2,272.1c-4.2,5.3-8.3,11.3-11.9,17.8c1.2,0,3,0.6,5.9,0.6
		c4.8,0,8.9-1.2,13.7-3c4.2-1.8,8.3-4.2,11.3-7.1c3-3,5.9-5.9,7.7-8.9c1.8-3,3-5.9,3-8.3c0-3.6-2.4-5.3-6.5-5.3c-3,0-6.5,1.2-10.7,3
		C657.1,263.8,652.4,267.3,648.2,272.1z"/>
	<path d="M827,300.6c1.8,0.6,2.4,1.2,2.4,1.8c0,0.6-1.2,3.6-3,8.3s-4.8,10.1-8.9,16c-4.2,5.3-8.3,10.7-13.7,15.4
		c-5.3,4.8-11.3,7.1-18.4,7.1c-5.9,0-11.3-2.4-16.6-7.7c-5.3-5.3-7.7-12.5-7.7-22.6c0-7.7,1.2-16,4.2-25c2.4-8.3,5.3-16.6,8.9-23.8
		c-3.6,0.6-6.5,1.2-9.5,1.2s-6.5,0.6-9.5,0.6c-1.8,0-3,0-4.2,0s-2.4,0-3.6-0.6c-5.9,10.7-10.1,19-13.7,25.5
		c-3,5.9-5.3,10.7-6.5,14.3c-1.2,3-2.4,5.3-3,5.9c-0.6,1.2-1.2,1.2-2.4,1.2c-2.4,0-3.6-0.6-3.6-1.8v-1.2c0,0,0-0.6,0.6-0.6
		c2.4-5.3,5.3-13.1,8.9-22c3.6-8.9,6.5-17.8,8.3-25.5c-5.3-3-8.9-6.5-10.7-10.7c-1.8-4.2-3-7.7-3-10.7c0-3,0.6-5.3,1.2-6.5
		c0.6-1.8,2.4-2.4,4.8-2.4c0.6,0,1.8,0,3,0c1.2,0,2.4,0,4.2,0.6c5.3,1.2,10.1,1.8,13.7,3c3.6,0.6,5.9,1.2,5.9,1.8
		c-1.2,1.8-1.8,3-1.8,3.6c-0.6,0.6-0.6,1.2-1.2,1.2c0,0.6,0.6,1.2,2.4,1.2c1.2,0,3,0.6,5.3,0.6c1.8,0,4.2,0.6,6.5,0.6
		c2.4,0,4.8,0,7.1,0h13.1c2.4-3,4.2-5.3,5.3-8.9c1.8-2.4,3-5.3,4.2-7.7c1.2-3,2.4-5.3,3-7.1c0.6,0,1.8,0.6,3.6,1.8
		c2.4,1.2,4.8,3,7.1,4.8s4.8,4.2,7.1,6.5c2.4,2.4,3,4.8,3,7.1c0,4.2-1.8,9.5-5.3,15.4c-3.6,6.5-7.7,13.1-11.9,20.2
		s-8.3,14.9-11.9,22.6c-3.6,7.7-5.3,14.9-5.3,22c0,3,0.6,5.3,1.2,7.7c0.6,1.8,2.4,3,4.8,3c4.2,0,9.5-3,16-8.3
		c6.5-5.3,13.1-14.9,19-27.3l1.2-0.6C825.8,300,826.4,300,827,300.6z"/>
</g>
</svg>
