<?xml version="1.0" encoding="utf-8"?>
<!-- Generator: Adobe Illustrator 18.1.1, SVG Export Plug-In . SVG Version: 6.00 Build 0)  -->
<svg version="1.1" id="Layer_1" xmlns="http://www.w3.org/2000/svg" xmlns:xlink="http://www.w3.org/1999/xlink" x="0px" y="0px"
	 viewBox="0 0 141.7 47" enable-background="new 0 0 141.7 47" xml:space="preserve">
<g>
	<path fill="#FFFFFF" d="M100.5,33c0.2,0.6,0.3,1.1,0.3,1.7c0,0.7-0.2,1.4-0.5,2c-0.3,0.6-0.7,1-1.1,1.4c-0.5,0.5-1,0.9-1.6,1.2
		c-1.8,1.2-3.8,2.1-6.2,2.8c-2.4,0.6-4.7,1.1-6.9,1.5c-2.2,0.3-4.2,0.5-6,0.6c-1.8,0.1-3,0.1-3.6,0.1c-4.1,0-8.2-0.3-12.3-1
		c-4.1-0.6-7.7-1.4-10.9-2.1c-3.2-0.8-6.8-1.8-10.8-3.2c-3-0.9-5.7-1.7-8-2.2c-2.3-0.6-4.3-1-6-1.3c-1.7-0.3-3.1-0.5-4.3-0.6
		c-1.1-0.1-2.1-0.1-2.7-0.1c-0.4,0-0.7,0-0.9,0c-0.2,0-0.4,0-0.5,0c-0.2,0-0.4,0.1-0.5,0.1l-0.1-0.3c-1.4,1.2-2.7,2.2-3.9,2.9
		c-1.2,0.8-2.3,1.4-3.4,1.8c-1,0.4-2,0.7-2.8,0.9c-0.9,0.2-1.6,0.2-2.2,0.2c-1.5,0-2.5-0.2-2.8-0.5c-0.4-0.3-0.6-0.7-0.6-1
		c0-0.8,0.3-1.6,1-2.3c0.7-0.7,1.5-1.3,2.6-1.8c1.1-0.5,2.2-0.9,3.4-1.3c1.2-0.3,2.4-0.6,3.5-0.9c1.1-0.2,2-0.4,2.8-0.5
		c0.8-0.1,1.2-0.1,1.4-0.1h0.2c0.1,0,0.2,0,0.2-0.1l-0.1,0.1c1.6-1.5,3.2-3.5,4.6-5.9c1.5-2.4,2.9-5,4.1-7.7c1.3-2.7,2.4-5.4,3.5-8
		c1.1-2.7,2-5,2.7-6.9c0.1,0,0.4,0.2,0.9,0.3c0.5,0.2,0.9,0.4,1.4,0.7c0.5,0.3,0.9,0.6,1.4,1c0.4,0.4,0.6,0.9,0.6,1.5
		c0,0.2,0,0.5-0.1,0.7c-0.1,0.3-0.2,0.5-0.3,0.9c-0.7,1.3-1.5,2.9-2.5,4.5c-0.9,1.7-1.9,3.4-3,5.2c-1.1,1.8-2.1,3.5-3.2,5.2
		c-1.1,1.7-2.2,3.2-3.3,4.5c-0.7,0.8-1.3,1.5-1.9,2.1c-0.6,0.6-1.2,1.3-1.7,1.9c2.2,0.1,4.6,0.3,7.1,0.7c2.5,0.4,4.8,0.8,6.9,1.2
		c2.5,0.5,4.9,1,7.3,1.6c5.4,1.2,10.8,2.2,16.4,3.2c5.6,1,11.3,1.5,17.1,1.5c4.8,0,8.8-0.3,11.9-0.9c3.2-0.6,5.7-1.3,7.7-2.1
		C97.3,35.2,99.1,34.2,100.5,33z M4,37.5c0.7,0.3,1.6,0.3,2.5,0.2c1-0.2,1.9-0.5,2.9-0.9c1-0.4,1.9-0.9,2.7-1.5
		c0.9-0.6,1.6-1.1,2.1-1.5c-1.8,0.1-3.5,0.4-4.9,0.7c-1.2,0.3-2.4,0.6-3.5,1.1C4.8,36.1,4.2,36.7,4,37.5z"/>
	<path fill="#FFFFFF" d="M51.8,23.9c0.3,0.1,0.4,0.2,0.4,0.3c0,0.2-0.2,0.8-0.5,1.7c-0.3,1-0.8,2-1.4,3.1c-0.6,1.1-1.4,2.1-2.3,3
		c-0.9,0.9-1.9,1.4-3.1,1.4c-1,0-2-0.5-2.9-1.5c-0.9-1-1.4-2.3-1.4-3.9c-0.3,0.5-0.7,0.9-1.1,1.4c-0.4,0.5-0.9,0.9-1.4,1.3
		c-0.5,0.4-1.1,0.7-1.7,1c-0.6,0.3-1.3,0.4-2,0.4c-1,0-1.9-0.4-2.8-1.3c-0.9-0.9-1.3-2.1-1.3-3.8c0-1.1,0.2-2.3,0.5-3.5
		c0.3-1.2,0.7-2.4,1.2-3.6c0.5-1.1,0.9-2.1,1.4-3c0.5-0.9,0.8-1.6,1.1-2.1h-0.1c0.3-0.5,0.6-0.9,0.9-1.4c0.3-0.4,0.5-0.7,0.7-1.1
		c0.2-0.4,0.3-0.7,0.4-1c0.1,0,0.3,0.1,0.7,0.3c0.4,0.2,0.8,0.5,1.2,0.8c0.4,0.3,0.8,0.7,1.2,1.1c0.4,0.4,0.5,0.8,0.5,1.2
		c0,0.5-0.3,1.3-0.9,2.4c-0.6,1.1-1.3,2.2-2.1,3.5c-0.8,1.3-1.5,2.6-2.1,3.9c-0.6,1.4-0.9,2.6-0.9,3.8c0,0.6,0.1,1,0.3,1.4
		c0.2,0.4,0.6,0.6,1.2,0.6c0.7,0,1.6-0.4,2.6-1.1c1-0.8,2-2.1,2.8-3.9c0.4-1.6,0.9-3.1,1.5-4.6c0.7-1.4,1.2-2.5,1.5-3.1
		c0.3-0.5,0.5-0.9,0.7-1.4c0.2-0.4,0.4-0.7,0.5-1.1c0.2-0.4,0.3-0.7,0.4-1c0.1,0,0.3,0.1,0.7,0.3c0.4,0.2,0.9,0.5,1.3,0.8
		c0.5,0.3,0.9,0.7,1.2,1.1c0.4,0.4,0.5,0.8,0.5,1.2c0,0.6-0.3,1.3-0.8,2.2c-0.5,0.9-1.1,1.9-1.8,3c-0.7,1.1-1.2,2.2-1.8,3.4
		c-0.5,1.2-0.8,2.3-0.8,3.4c0,1.5,0.4,2.3,1.1,2.3c0.7,0,1.7-0.6,2.8-1.9c1.1-1.3,2.2-3.2,3.1-5.8c0,0,0.1-0.1,0.2-0.1
		C51.6,23.9,51.7,23.9,51.8,23.9z"/>
	<path fill="#FFFFFF" d="M60.7,29.6c-0.7-0.9-1.1-2.1-1.1-3.7c0-1.2,0.2-2.4,0.5-3.4c0.3-1,0.7-2.1,1.2-3.4
		c-0.5,0.8-1.1,1.7-1.8,2.9c-0.7,1.1-1.4,2.3-2.1,3.5c-0.7,1.2-1.3,2.3-1.8,3.3c-0.5,1-0.9,1.8-1.1,2.3c-0.3,0.6-0.5,1.1-0.8,1.4
		c-0.3,0.3-0.6,0.6-0.9,0.9c-0.3,0.3-0.7,0.4-1.1,0.4c-1.2,0-2.1-0.4-2.5-1.3c-0.4-0.9-0.6-2-0.6-3.4c0-1.5,0.2-3,0.6-4.5
		c0.4-1.5,0.9-2.8,1.4-4c0.5-1.2,1-2.2,1.5-3c0.5-0.8,0.8-1.3,0.9-1.5c0.3-0.6,0.6-1.2,0.9-2c0.3-0.8,0.5-1.3,0.6-1.6
		c0.2,0,0.4,0.1,0.9,0.3c0.4,0.2,0.8,0.5,1.2,0.9c0.4,0.3,0.7,0.7,1.1,1.1c0.3,0.4,0.5,0.8,0.5,1.2c0,0.8-0.3,1.7-0.9,2.6
		c-0.6,1-1.3,2-2.1,3.2c-0.8,1.1-1.4,2.3-2.1,3.6c-0.6,1.2-0.9,2.6-0.9,3.9c0,0.4,0,0.6,0.1,0.8c1.7-2.9,3.2-5.3,4.5-7.2
		c1.3-1.9,2.4-3.5,3.3-4.6c0.9-1.2,1.7-2.1,2.3-2.8c0.6-0.7,1.1-1.2,1.5-1.7c0.4-0.4,0.7-0.8,0.9-1.2c0.2-0.3,0.4-0.8,0.5-1.5
		c0.1,0,0.3,0.1,0.7,0.3c0.4,0.2,0.8,0.5,1.2,0.8c0.4,0.3,0.8,0.7,1.2,1.1c0.4,0.4,0.5,0.8,0.5,1.2c0,0.1,0,0.4-0.1,0.8
		c-0.1,0.4-0.2,0.6-0.4,0.8c-0.4,0.8-0.9,1.6-1.5,2.5c-0.6,0.9-1.2,1.7-1.7,2.7c-0.5,0.9-1,1.9-1.4,2.8c-0.4,0.9-0.6,1.9-0.6,2.8
		c0,0.5,0.1,0.9,0.2,1.3c0.1,0.3,0.4,0.5,0.9,0.5c0.7,0,1.6-0.5,2.7-1.4c1.1-0.9,2.2-2.5,3.2-4.6l0.2-0.1c0.2,0,0.3,0.1,0.5,0.2
		l0.2,0.1c0,0.1-0.2,0.5-0.5,1.4c-0.3,0.8-0.8,1.7-1.4,2.7c-0.6,1-1.4,1.8-2.3,2.6c-0.9,0.8-1.9,1.2-3.1,1.2c-0.5,0-1-0.1-1.5-0.3
		C61.7,30.5,61.2,30.1,60.7,29.6z"/>
	<path fill="#FFFFFF" d="M87.7,23.7c0.2,0,0.2,0.1,0.2,0.3c-0.3,1-0.8,2-1.7,3c-0.9,1-1.9,1.9-3.1,2.7c-1.2,0.8-2.5,1.5-3.8,2
		c-1.3,0.5-2.6,0.8-3.7,0.8c-1.2,0-2.2-0.2-3.1-0.7c-0.9-0.4-1.6-1-2.1-1.7c-0.6-0.7-1-1.4-1.3-2.3c-0.3-0.8-0.4-1.6-0.4-2.4
		c0-2.9,0.7-5.4,2.2-7.8c1.5-2.3,3.8-3.9,7.1-4.9c0.5-0.1,0.9-0.2,1.4-0.2c1.1,0,2.1,0.3,2.7,0.8c0.7,0.5,1.2,1.1,1.6,1.8
		c0.4,0.7,0.6,1.3,0.7,1.9c0.1,0.6,0.2,1,0.2,1.1c0,0.5-0.1,1.1-0.2,1.7c-0.1,0.6-0.3,1.2-0.6,1.8c-0.3,0.6-0.6,1-1.1,1.4
		c-0.5,0.4-1,0.6-1.6,0.6c-0.4,0-0.8,0-1.2-0.1c-0.4-0.1-0.8-0.2-1.2-0.3c-0.4-0.1-0.8-0.3-1.2-0.4c0.6-0.6,1-1.3,1.3-1.9
		c0.3-0.6,0.5-1.1,0.6-1.6c0.2-0.5,0.2-1,0.2-1.4c0-0.7-0.3-1.1-0.9-1.1c-0.6,0-1.2,0.3-2,0.8c-0.8,0.5-1.5,1.2-2.2,2
		c-0.7,0.8-1.3,1.7-1.8,2.8c-0.5,1-0.7,2.1-0.7,3.2c0,1.4,0.5,2.6,1.4,3.5c0.9,0.9,2.1,1.4,3.5,1.4c0.7,0,1.4-0.1,2.1-0.3
		c0.7-0.2,1.3-0.5,2-0.8c0.6-0.3,1.2-0.6,1.7-1c0.5-0.3,1-0.7,1.3-0.9c1-0.7,1.7-1.3,2.1-1.7c0.4-0.5,0.7-0.8,0.9-1.1
		c0.2-0.3,0.3-0.5,0.4-0.7C87.2,23.7,87.3,23.7,87.7,23.7z"/>
	<path fill="#FFFFFF" d="M105.8,23.9c0.3,0.1,0.4,0.2,0.4,0.3c0,0.1-0.2,0.6-0.5,1.5c-0.4,0.8-0.9,1.7-1.5,2.7
		c-0.7,1-1.4,1.8-2.3,2.6c-0.9,0.8-1.9,1.1-3,1.1c-1.2,0-2.2-0.5-3-1.6c-0.8-1.1-1.2-2.4-1.2-3.8c0-0.8,0.1-1.6,0.2-2.2
		c0.1-0.6,0.3-1.3,0.6-2.1c-0.6,0.9-1.2,1.9-1.8,3c-0.6,1.1-1.2,2.1-1.8,3.1c-0.6,1-1.1,2-1.5,2.8c-0.4,0.9-0.7,1.6-0.9,2.1
		c-0.2,0.6-0.6,1-1.1,1.3c-0.5,0.3-1,0.5-1.6,0.5c-0.6,0-1.2-0.2-1.8-0.7c-0.5-0.5-0.8-1.3-0.8-2.5c0-1.1,0.2-2.5,0.6-4.1
		c0.4-1.6,0.9-3.4,1.5-5.2c0.6-1.8,1.2-3.7,2-5.5c0.7-1.8,1.4-3.5,2-5.1c0.7-1.5,1.2-2.9,1.8-4c0.5-1.1,0.9-1.8,1-2.2
		c0.2-0.5,0.3-1,0.5-1.5c0.2-0.4,0.3-0.8,0.4-1.2C93.9,2.6,94,2.3,94,2c0.1,0,0.3,0.2,0.8,0.3c0.5,0.2,1,0.4,1.5,0.7
		c0.5,0.3,1,0.6,1.4,1c0.4,0.4,0.6,0.8,0.6,1.4c0,0.6-0.1,1.2-0.4,1.8c-0.3,0.5-0.7,1.3-1.3,2.4c-0.6,1.2-1.3,2.5-2.1,4
		c-0.8,1.5-1.6,3.1-2.5,4.8c-0.9,1.7-1.6,3.4-2.3,5.1c-0.7,1.6-1.3,3.2-1.8,4.5c-0.5,1.4-0.7,2.5-0.7,3.3c0,0,0-0.1,0.1-0.1
		c2.2-3.5,4.1-6.3,5.6-8.4c1.6-2.1,2.8-3.8,3.8-5c1-1.2,1.7-2.1,2.1-2.6c0.4-0.5,0.5-1,0.4-1.3c0.1,0,0.3,0.1,0.7,0.3
		c0.4,0.2,0.8,0.5,1.2,0.8c0.4,0.3,0.8,0.7,1.2,1.1c0.4,0.4,0.5,0.8,0.5,1.2c0,0.2-0.1,0.6-0.2,1c-0.3,0.7-0.7,1.5-1.2,2.3
		c-0.5,0.8-1,1.5-1.5,2.3c-0.5,0.8-0.9,1.6-1.2,2.5c-0.3,0.9-0.5,1.7-0.5,2.6c0,0.5,0.1,1,0.2,1.4c0.1,0.4,0.5,0.7,1,0.7
		c0.7,0,1.6-0.5,2.7-1.4c1.1-0.9,2.2-2.5,3.2-4.6c0,0,0.1-0.1,0.2-0.1C105.6,23.9,105.7,23.9,105.8,23.9z"/>
	<path fill="#FFFFFF" d="M121.4,25.7c0.1,0.1,0.2,0.2,0.2,0.3c-0.8,1.3-1.7,2.4-2.7,3.4c-0.9,0.8-2,1.6-3.4,2.3c-1.4,0.7-3,1-4.8,1
		c-1.4,0-2.5-0.3-3.4-0.8c-0.9-0.5-1.7-1.1-2.3-1.9c-0.6-0.8-1-1.6-1.2-2.5c-0.2-0.9-0.4-1.7-0.4-2.4c0-1.6,0.3-3.1,0.9-4.5
		c0.6-1.5,1.4-2.8,2.3-3.9c1-1.2,2.1-2.1,3.4-2.8c1.2-0.7,2.5-1,3.9-1c1.7,0,3,0.4,3.9,1.2c0.9,0.8,1.4,1.7,1.4,2.7
		c0,1-0.2,1.9-0.7,2.8c-0.5,0.9-1.1,1.7-1.9,2.3c-0.8,0.7-1.8,1.2-2.8,1.6c-1.1,0.4-2.2,0.6-3.4,0.6c-0.8,0-1.5-0.1-2.1-0.2
		c-0.6-0.2-1-0.4-1.2-0.6c-0.3,0.8-0.5,1.7-0.5,2.5c0,1.3,0.5,2.5,1.4,3.5c0.9,1,2.1,1.6,3.6,1.6c1.1,0,2.3-0.3,3.5-0.8
		c1.2-0.6,2.1-1,2.8-1.5c0.8-0.5,1.4-0.9,1.8-1.3c0.4-0.4,0.8-0.7,1-0.9c0.2-0.3,0.4-0.4,0.4-0.6c0.1-0.1,0.2-0.2,0.3-0.2
		C121.2,25.6,121.3,25.6,121.4,25.7z M109.1,19.2c-0.7,0.9-1.4,1.9-2,3c0.2,0,0.5,0.1,1,0.1c0.8,0,1.5-0.2,2.3-0.5
		c0.7-0.3,1.4-0.7,1.9-1.2c0.5-0.5,1-1,1.3-1.5c0.3-0.5,0.5-1,0.5-1.4c0-0.6-0.4-0.9-1.1-0.9c-0.5,0-1.1,0.2-1.8,0.5
		C110.6,17.8,109.8,18.4,109.1,19.2z"/>
	<path fill="#FFFFFF" d="M139.2,24c0.3,0.1,0.4,0.2,0.4,0.3c0,0.1-0.2,0.6-0.5,1.4c-0.3,0.8-0.8,1.7-1.5,2.7
		c-0.7,0.9-1.4,1.8-2.3,2.6c-0.9,0.8-1.9,1.2-3.1,1.2c-1,0-1.9-0.4-2.8-1.3c-0.9-0.9-1.3-2.1-1.3-3.8c0-1.3,0.2-2.7,0.7-4.2
		c0.4-1.4,0.9-2.8,1.5-4c-0.6,0.1-1.1,0.2-1.6,0.2c-0.5,0-1.1,0.1-1.6,0.1c-0.3,0-0.5,0-0.7,0c-0.2,0-0.4,0-0.6-0.1
		c-1,1.8-1.7,3.2-2.3,4.3c-0.5,1-0.9,1.8-1.1,2.4c-0.2,0.5-0.4,0.9-0.5,1c-0.1,0.2-0.2,0.2-0.4,0.2c-0.4,0-0.6-0.1-0.6-0.3v-0.2
		c0,0,0-0.1,0.1-0.1c0.4-0.9,0.9-2.2,1.5-3.7c0.6-1.5,1.1-3,1.4-4.3c-0.9-0.5-1.5-1.1-1.8-1.8c-0.3-0.7-0.5-1.3-0.5-1.8
		c0-0.5,0.1-0.9,0.2-1.1c0.1-0.3,0.4-0.4,0.8-0.4c0.1,0,0.3,0,0.5,0c0.2,0,0.4,0,0.7,0.1c0.9,0.2,1.7,0.3,2.3,0.5
		c0.6,0.1,1,0.2,1,0.3c-0.2,0.3-0.3,0.5-0.3,0.6c-0.1,0.1-0.1,0.2-0.2,0.2c0,0.1,0.1,0.2,0.4,0.2c0.2,0,0.5,0.1,0.9,0.1
		c0.3,0,0.7,0.1,1.1,0.1c0.4,0,0.8,0,1.2,0h2.2c0.4-0.5,0.7-0.9,0.9-1.5c0.3-0.4,0.5-0.9,0.7-1.3c0.2-0.5,0.4-0.9,0.5-1.2
		c0.1,0,0.3,0.1,0.6,0.3c0.4,0.2,0.8,0.5,1.2,0.8c0.4,0.3,0.8,0.7,1.2,1.1c0.4,0.4,0.5,0.8,0.5,1.2c0,0.7-0.3,1.6-0.9,2.6
		c-0.6,1.1-1.3,2.2-2,3.4c-0.7,1.2-1.4,2.5-2,3.8c-0.6,1.3-0.9,2.5-0.9,3.7c0,0.5,0.1,0.9,0.2,1.3c0.1,0.3,0.4,0.5,0.8,0.5
		c0.7,0,1.6-0.5,2.7-1.4c1.1-0.9,2.2-2.5,3.2-4.6l0.2-0.1C139,23.9,139.1,23.9,139.2,24z"/>
</g>
</svg>
